<?xml version="1.0" encoding="utf-8" ?>
<svg xmlns="http://www.w3.org/2000/svg" xmlns:xlink="http://www.w3.org/1999/xlink" width="1024" height="1024">
	<path fill="#565656" d="M504.235 131.705L505.668 131.613C516.736 131.151 527.956 131.747 539 132.501C624.704 138.354 708.298 174.471 771.336 232.905C828.718 286.097 868.609 354.145 885.041 430.821C889.984 453.886 892.494 477.694 893.33 501.252C896.871 601.121 857.343 701.058 789.185 773.722C730.808 835.96 650.532 877.082 566.155 889.267C550.849 891.477 535.466 892.267 520.028 892.782C454.328 895.077 386.004 878.189 328.528 846.397C301.348 831.363 276.55 812.939 253.536 792.144C242.155 781.86 231.286 771.222 221.272 759.592C166.795 696.322 134.893 614.479 130.74 531.228C128.413 484.591 134.486 436.031 149.214 391.699C165.921 341.411 193.622 295.476 229.18 256.307C283.201 196.8 356.74 154.624 435.75 139.256C458.313 134.868 481.303 132.827 504.235 131.705ZM505.113 158.241C486.869 159.195 468.078 160.711 450.08 163.928C371.16 178.031 299.94 217.225 246.284 276.774C203.286 324.496 175.69 381.051 163.422 444C158.373 469.908 155.278 496.08 156.747 522.535C158.254 549.674 161.757 576.595 168.634 602.927C180.604 648.764 202.473 691.535 231.593 728.796C244.148 744.86 257.813 760.223 273.049 773.812C282.887 782.587 292.941 791.249 303.642 798.96C365.689 843.674 442.635 867.871 519.125 866.067C540.103 865.065 560.656 863.209 581.299 859.16C657.359 844.242 725.922 803.504 777.75 746.231C838.866 678.695 871.401 584.39 866.197 493.538C860.956 402.021 821.316 313.316 752.463 252.017C696.917 202.565 629.24 171.271 555.5 161.471C538.914 159.267 521.857 157.693 505.113 158.241Z"/>
	<path fill="#565656" d="M242.65 662.359C245.788 661.74 249.235 662.062 252.417 662.131L267.559 662.398L330.289 663.038L573.94 662.02L574.107 682.946L361.575 682.92L301.593 682.895C290.755 682.886 278.918 683.747 268.211 682.25C261.305 681.284 254.376 677.087 249.484 672.261C246.663 669.479 244.257 665.974 242.65 662.359Z"/>
	<path fill="#8E8D8D" d="M242.65 662.359C239.98 657.35 239.935 651.011 239.865 645.489L239.943 627.433L304.701 627.874C316.678 628.826 328.648 628.121 340.643 628.154L407.423 628.403C418.049 628.412 429.476 627.585 440.008 628.686C446.518 629.848 453.277 629.781 459.872 629.777L486.095 629.579C500.966 629.531 516.154 630.399 530.977 629.016L573.897 628.552L573.94 662.02L330.289 663.038L267.559 662.398L252.417 662.131C249.235 662.062 245.788 661.74 242.65 662.359Z"/>
	<path fill="#565656" d="M440.008 628.686C446.518 629.848 453.277 629.781 459.872 629.777L486.095 629.579C500.966 629.531 516.154 630.399 530.977 629.016L530.974 637.992L439.995 638.253L440.008 628.686Z"/>
	<path fill="#0073B2" d="M304.701 627.874L304.871 436.124L304.897 379.426C304.871 370.491 303.958 361.268 304.889 352.39C305.473 346.817 307.214 341.57 311.25 337.513C317.257 331.474 324.502 330.338 332.611 330.527L411.771 330.623L574.09 330.649L638.617 330.566L657.438 330.546C660.741 330.544 664.303 330.28 667.576 330.682C672.939 331.34 678.355 333.975 682.097 337.909C684.763 340.711 686.684 344.385 687.381 348.196C688.895 356.481 687.904 366.355 687.908 374.854L687.897 431.487L662.015 431.487L662.017 356.499L331.527 356.518L331.609 607.551L573.997 607.518L573.897 628.552L530.977 629.016C516.154 630.399 500.966 629.531 486.095 629.579L459.872 629.777C453.277 629.781 446.518 629.848 440.008 628.686C429.476 627.585 418.049 628.412 407.423 628.403L340.643 628.154C328.648 628.121 316.678 628.826 304.701 627.874Z"/>
	<path fill="#565656" d="M603.774 450.608L659.641 450.608L703.071 450.552L717.128 450.523C719.851 450.523 723.057 450.229 725.609 451.286C730.107 453.149 733.688 456.873 735.302 461.467C735.95 463.311 736.236 465.301 736.294 467.25L736.426 511.437L736.488 599.158L736.485 664.722L736.409 697.984C736.289 700.405 735.655 702.787 734.598 704.971C732.04 710.262 728.062 713.399 722.618 715.37C716.277 716.45 709.562 715.872 703.131 715.868L670.254 715.862L637.25 715.986C627.92 716.143 618.632 716.593 609.309 715.975C605.915 715.75 602.696 715.273 599.625 713.72C595.378 711.572 592.831 708.116 591.408 703.631C589.765 698.453 590.52 691.992 590.526 686.555L590.589 658.655L590.628 563.626L590.604 500.375L590.702 465.5C590.802 463.088 591.335 460.862 592.531 458.75C594.987 454.41 599.019 451.826 603.774 450.608Z"/>
	<path fill="#0073B2" d="M601.802 494.013C601.287 489.69 601.428 485.237 601.397 480.885C601.359 475.509 600.422 468.665 603.764 464.114C605.209 462.146 607.279 460.834 609.391 459.69L687.169 459.993C696.905 459.992 707.427 459.167 717.085 460.059C719.371 460.27 721.588 461.13 723.25 462.755C723.954 463.443 725.773 465.618 725.982 466.549C726.467 468.716 726.057 472.045 726.054 474.324L725.939 493.065L725.888 494.004L601.802 494.013Z"/>
	<path fill="#42A4CF" d="M645.747 467.739C658.924 467.502 673.196 466.436 686.25 468.128C687.448 469.033 688.944 470.096 689.315 471.649C689.65 473.053 689.577 474.479 688.622 475.622C687.58 476.868 686.139 477.221 684.625 477.505L660.397 477.51C654.973 477.551 648.211 478.43 643 477.051C641.989 476.258 641.085 475.627 640.698 474.325C640.228 472.747 640.62 471.872 641.477 470.583C642.571 468.938 643.836 468.103 645.747 467.739Z"/>
	<path fill="#0073B2" d="M726.098 673.754L726.75 674.361C727.87 677.028 727.419 680.909 727.433 683.804C727.463 689.908 728.172 697.27 726.752 703.201C726.276 705.189 723.532 708.551 721.633 709.35C720.49 709.83 718.254 709.76 716.981 709.826L700.84 710.011L627.307 709.82L610.817 709.564C608.848 709.515 606.23 709.768 604.343 709.195C602.457 708.623 600.863 706.707 600.003 705.023C597.209 699.555 598.412 691.393 598.43 685.385C598.437 683.255 597.929 679.481 598.778 677.579C599.628 675.675 601.171 674.898 602.959 674.02L726.098 673.754Z"/>
	<path fill="#F8F8F8" d="M660.203 684.519C662.511 684.44 664.64 684.54 666.889 685.111C669.907 685.877 671.62 687.782 673.154 690.392C674.521 692.72 674.973 695.262 674.179 697.889C672.984 701.847 669.886 703.81 666.518 705.741C664.537 706.015 662.806 706.05 660.831 705.667C657.79 705.077 655.621 703.558 653.962 700.927C652.339 698.355 651.922 694.601 652.722 691.655C653.769 687.8 656.965 686.224 660.203 684.519Z"/>
	<path fill="#F8F8F8" d="M601.802 494.013L725.888 494.004L725.964 617.141L725.902 652.961C725.866 659.194 725.269 665.556 725.921 671.75L726.098 673.754L602.959 674.02L601.802 494.013Z"/>
</svg>
